# xmcd
#
# Track frame offsets: 
#        150
#        17760
#        40600
#        55570
#        71215
#        88970
#        101917
#        124427
#        141150
#        151517
#        167820
#        182420
#
# Disc length: 2661 seconds
#
# Revision: 3
# Processed by: cddbd v1.5PL3 Copyright (c) Steve Scherf et al.
# Submitted via: ExactAudioCopy v0.90b4
#
DISCID=9e0a630c
DTITLE=The Charlie Daniels Band - How Sweet The Sound - Disc 1
DYEAR=1900
DGENRE=Gospel
TTITLE0=Amazing Grace
TTITLE1=Precious Lord, Take My Hand
TTITLE2=In The Garden
TTITLE3=Softly And Tenderly
TTITLE4=Abide With Me
TTITLE5=I Saw The Light
TTITLE6=Just A Closer Walk With Thee
TTITLE7=Just A Little Talk With Jesus
TTITLE8=Swing Down Chariot
TTITLE9=Nothing But The Blood
TTITLE10=I'll Fly Away
TTITLE11=How Great Thou Art
EXTD=
EXTT0=
EXTT1=
EXTT2=
EXTT3=
EXTT4=
EXTT5=
EXTT6=
EXTT7=
EXTT8=
EXTT9=
EXTT10=
EXTT11=
PLAYORDER=
